<?xml version="1.0" standalone="no"?>
<svg version="1.0" xmlns="http://www.w3.org/2000/svg"
 width="512.000000pt" height="512.000000pt" viewBox="0 0 512.000000 512.000000"
 preserveAspectRatio="xMidYMid meet">
<g transform="translate(0.000000,512.000000) scale(0.100000,-0.100000)"
fill="#000000" stroke="none">
<path d="M3285 3859 c-379 -208 -697 -379 -705 -379 -8 0 -341 167 -740 370
-399 204 -733 372 -742 375 -14 5 -48 -55 -182 -323 l-164 -328 251 -127 c264
-132 885 -448 1315 -668 139 -71 256 -129 261 -129 10 0 1720 965 1731 977 8
8 -319 614 -329 612 -3 -1 -316 -172 -696 -380z"/>
<path d="M4635 3611 c-176 -100 -278 -158 -340 -192 -33 -18 -433 -243 -889
-501 -456 -257 -833 -468 -838 -468 -6 0 -74 33 -152 74 -344 180 -1631 829
-1643 829 -7 0 -13 4 -13 9 0 4 -6 8 -14 8 -8 0 -22 7 -30 16 -9 8 -16 12 -16
7 0 -4 -4 -3 -8 3 -4 6 -79 47 -168 92 -143 72 -161 79 -170 64 -6 -9 -66
-125 -134 -257 -68 -132 -142 -277 -166 -322 -30 -59 -39 -85 -30 -92 6 -5
184 -95 396 -201 432 -215 467 -233 845 -425 149 -76 277 -141 285 -145 8 -5
44 -23 80 -40 36 -18 69 -36 73 -40 5 -4 -33 -29 -85 -55 -51 -26 -99 -52
-105 -57 -7 -6 -13 -7 -13 -4 0 4 -12 -1 -27 -11 -16 -10 -94 -52 -175 -93
l-147 -74 171 -335 c94 -185 172 -337 173 -339 2 -2 242 116 534 262 292 146
536 266 541 266 9 0 280 -132 919 -449 79 -39 148 -68 152 -64 4 4 51 94 104
198 54 105 129 250 166 322 38 73 69 135 69 138 0 2 -126 67 -280 143 l-281
139 173 99 c247 141 271 154 291 161 9 3 17 9 17 14 0 5 4 9 9 9 6 0 36 15 68
34 32 18 78 45 103 58 25 14 142 81 260 148 118 67 249 141 290 165 41 23 93
52 115 64 22 13 85 48 140 79 55 31 103 60 106 65 3 5 8 7 10 6 2 -2 25 10 51
25 l47 27 -22 47 c-12 26 -25 52 -29 57 -6 9 -122 236 -250 487 -27 54 -52 99
-56 102 -4 2 -52 -22 -107 -53z"/>
</g>
</svg>
